<svg xmlns="http://www.w3.org/2000/svg" width="192" height="192" fill="#000000" viewBox="0 0 256 256"><rect width="256" height="256" fill="none"></rect><line x1="72" y1="192" x2="72" y2="216" fill="none" stroke="#000000" stroke-linecap="round" stroke-linejoin="round" stroke-width="16"></line><line x1="184" y1="192" x2="184" y2="216" fill="none" stroke="#000000" stroke-linecap="round" stroke-linejoin="round" stroke-width="16"></line><path d="M56,104V52a20,20,0,0,1,40,0" fill="none" stroke="#000000" stroke-linecap="round" stroke-linejoin="round" stroke-width="16"></path><rect x="136" y="96" width="64" height="48" fill="none" stroke="#000000" stroke-linecap="round" stroke-linejoin="round" stroke-width="16"></rect><path d="M200,104h32a8,8,0,0,1,8,8v32a48,48,0,0,1-48,48H64a48,48,0,0,1-48-48V112a8,8,0,0,1,8-8H136" fill="none" stroke="#000000" stroke-linecap="round" stroke-linejoin="round" stroke-width="16"></path></svg>